# xmcd
#
# Track frame offsets: 
#        150
#        12972
#        27850
#        47082
#        62080
#        81710
#        97565
#        112412
#        127090
#        145280
#        161137
#        176702
#        193507
#        209930
#
# Disc length: 2962 seconds
#
# Revision: 0
# Processed by: cddbd v1.5.2PL0 Copyright (c) Steve Scherf et al.
# Submitted via: ExactAudioCopyFreeDBPlugin 1.0
#
DISCID=d40b900e
DTITLE=Gebak - Liefde slaat een brug
DYEAR=2010
DGENRE=Nederlands talig
TTITLE0=Je bent wie je bent
TTITLE1=Moeders huis
TTITLE2=Liefde slaat een brug
TTITLE3=Jas met duizend kleuren
TTITLE4=Ticket naar Eden
TTITLE5=Adem mijn adem
TTITLE6=Lieve An
TTITLE7=Drukke man
TTITLE8=Op straat
TTITLE9=Neem eens een kind
TTITLE10=Leg je dan naast me
TTITLE11=Gewoon wie je bent
TTITLE12=Iemand voor iemand zijn
TTITLE13=De kleine dingen
EXTD=
EXTT0=
EXTT1=
EXTT2=
EXTT3=
EXTT4=
EXTT5=
EXTT6=
EXTT7=
EXTT8=
EXTT9=
EXTT10=
EXTT11=
EXTT12=
EXTT13=
PLAYORDER=
